<svg xmlns="http://www.w3.org/2000/svg" width="88.693" height="86.64" viewBox="0 0 88.693 86.64">
  <g id="container" style="mix-blend-mode: luminosity;isolation: isolate">
    <path id="Path_17" data-name="Path 17" d="M232.158,54.041q-.16,0-.322-.01a5,5,0,0,1-1.022-9.8V38.021a1.339,1.339,0,1,1,2.677,0v6.334A2.49,2.49,0,0,1,231.6,46.79a2.321,2.321,0,0,0-1.763,2.4A2.345,2.345,0,0,0,232,51.359a2.32,2.32,0,0,0,2.47-2.315,1.339,1.339,0,0,1,2.677,0,5.017,5.017,0,0,1-1.575,3.642A4.949,4.949,0,0,1,232.158,54.041Z" transform="translate(-187.806 -31.354)" fill="#ff6d3a"/>
    <path id="Path_18" data-name="Path 18" d="M97.042,133.44a1.331,1.331,0,0,1-.733-.22L56.6,107.151,16.9,133.221a1.338,1.338,0,0,1-1.469-2.238l40.44-26.552a1.339,1.339,0,0,1,1.469,0l40.44,26.552a1.339,1.339,0,0,1-.736,2.457Z" transform="translate(-12.256 -87.185)" fill="#ccdfed"/>
    <path id="Path_19" data-name="Path 19" d="M227.8,15.357H220.55a1.073,1.073,0,0,1-1.036-.793l-1.971-7.286a1.073,1.073,0,0,1,1.036-1.354h11.189A1.073,1.073,0,0,1,230.8,7.279l-1.971,7.286A1.074,1.074,0,0,1,227.8,15.357Z" transform="translate(-179.826 -5.925)" fill="#3d6687"/>
    <path id="Path_20" data-name="Path 20" d="M87.468,294.564H1.225A1.225,1.225,0,0,1,0,293.339V251.472a1.225,1.225,0,0,1,1.225-1.225H87.468a1.225,1.225,0,0,1,1.225,1.225v41.867A1.225,1.225,0,0,1,87.468,294.564Z" transform="translate(0 -207.923)" fill="#acc3d1"/>
    <path id="Path_21" data-name="Path 21" d="M463.224,250.247h-8.739v44.317h8.739a1.225,1.225,0,0,0,1.225-1.225V251.472A1.225,1.225,0,0,0,463.224,250.247Z" transform="translate(-375.755 -207.923)" fill="#8faab5"/>
    <g id="Group_46" data-name="Group 46" transform="translate(5.323 47.664)">
      <path id="Path_22" data-name="Path 22" d="M32.069,314.712a1.339,1.339,0,0,0,1.339-1.339V282.416a1.339,1.339,0,1,0-2.679,0v30.956A1.34,1.34,0,0,0,32.069,314.712Z" transform="translate(-30.73 -281.077)" fill="#ccdfed"/>
      <path id="Path_23" data-name="Path 23" d="M153.431,314.712a1.339,1.339,0,0,0,1.339-1.339V282.416a1.339,1.339,0,1,0-2.679,0v30.956A1.339,1.339,0,0,0,153.431,314.712Z" transform="translate(-131.069 -281.077)" fill="#ccdfed"/>
      <path id="Path_24" data-name="Path 24" d="M214.112,314.712a1.339,1.339,0,0,0,1.339-1.339V282.416a1.339,1.339,0,1,0-2.679,0v30.956A1.339,1.339,0,0,0,214.112,314.712Z" transform="translate(-181.238 -281.077)" fill="#ccdfed"/>
      <path id="Path_25" data-name="Path 25" d="M274.793,314.712a1.339,1.339,0,0,0,1.339-1.339V282.416a1.339,1.339,0,1,0-2.679,0v30.956A1.339,1.339,0,0,0,274.793,314.712Z" transform="translate(-231.407 -281.077)" fill="#ccdfed"/>
      <path id="Path_26" data-name="Path 26" d="M335.474,314.712a1.339,1.339,0,0,0,1.339-1.339V282.416a1.339,1.339,0,1,0-2.679,0v30.956A1.339,1.339,0,0,0,335.474,314.712Z" transform="translate(-281.577 -281.077)" fill="#ccdfed"/>
      <path id="Path_27" data-name="Path 27" d="M456.835,314.712a1.339,1.339,0,0,0,1.339-1.339V282.416a1.339,1.339,0,0,0-2.679,0v30.956A1.339,1.339,0,0,0,456.835,314.712Z" transform="translate(-381.914 -281.077)" fill="#ccdfed"/>
      <path id="Path_28" data-name="Path 28" d="M92.554,314.712a1.339,1.339,0,0,0,1.339-1.339V282.416a1.339,1.339,0,1,0-2.679,0v30.956A1.339,1.339,0,0,0,92.554,314.712Z" transform="translate(-80.737 -281.077)" fill="#ccdfed"/>
      <path id="Path_29" data-name="Path 29" d="M396.007,314.712a1.339,1.339,0,0,0,1.339-1.339V282.416a1.339,1.339,0,1,0-2.679,0v30.956A1.339,1.339,0,0,0,396.007,314.712Z" transform="translate(-331.624 -281.077)" fill="#ccdfed"/>
    </g>
    <path id="Path_30" data-name="Path 30" d="M258.561,111.229A2.313,2.313,0,0,1,256.374,113l2.755,1.808a5.1,5.1,0,0,0,.6-.485,5,5,0,0,0,1.128-1.582Z" transform="translate(-211.963 -92.987)" fill="#ff6d3a"/>
  </g>
</svg>
