<svg xmlns="http://www.w3.org/2000/svg" width="37.689" height="37.689" viewBox="0 0 37.689 37.689">
  <path id="delete-bin-line_1_" data-name="delete-bin-line (1)" d="M30.266,9.538h9.422v3.769H35.92V37.8a1.884,1.884,0,0,1-1.884,1.884H7.653A1.884,1.884,0,0,1,5.769,37.8v-24.5H2V9.538h9.422V3.884A1.884,1.884,0,0,1,13.307,2H28.382a1.884,1.884,0,0,1,1.884,1.884Zm1.884,3.769H9.538V35.92H32.151ZM15.191,18.96H18.96V30.267H15.191Zm7.538,0H26.5V30.267H22.729ZM15.191,5.769V9.538H26.5V5.769Z" transform="translate(-2 -2)"/>
</svg>
