<svg xmlns="http://www.w3.org/2000/svg" width="28.691" height="33.472" viewBox="0 0 28.691 33.472">
  <path id="Path_64" data-name="Path 64" d="M26.909,12.157H30.1a1.594,1.594,0,0,1,1.594,1.594V32.879A1.594,1.594,0,0,1,30.1,34.472H4.594A1.594,1.594,0,0,1,3,32.879V13.751a1.594,1.594,0,0,1,1.594-1.594H7.782V10.564a9.564,9.564,0,1,1,19.127,0ZM6.188,15.345V31.285H28.5V15.345Zm9.564,6.376h3.188v3.188H15.751Zm-6.376,0h3.188v3.188H9.376Zm12.751,0h3.188v3.188H22.127Zm1.594-9.564V10.564a6.376,6.376,0,1,0-12.751,0v1.594Z" transform="translate(-3 -1)"/>
</svg>
