<svg xmlns="http://www.w3.org/2000/svg" width="87.618" height="87.64" viewBox="0 0 87.618 87.64">
  <g id="ship" style="mix-blend-mode: luminosity;isolation: isolate">
    <path id="Path_40" data-name="Path 40" d="M239.067,12.654h-8.814V1.41A1.41,1.41,0,0,1,231.663,0h5.994a1.41,1.41,0,0,1,1.41,1.41Z" transform="translate(-190.851)" fill="#b4b6bc"/>
    <path id="Path_41" data-name="Path 41" d="M194.177,51.735H162v-10.9a2.089,2.089,0,0,1,2.09-2.089h28a2.089,2.089,0,0,1,2.089,2.089v10.9Z" transform="translate(-134.277 -32.115)" fill="#e6e5e5"/>
    <path id="Path_42" data-name="Path 42" d="M300.385,38.748h-7.727V51.735h9.816v-10.9A2.089,2.089,0,0,0,300.385,38.748Z" transform="translate(-242.574 -32.115)" fill="#cccbca"/>
    <path id="Path_43" data-name="Path 43" d="M145.058,114.087l-3-25.7a3.681,3.681,0,0,0-3.656-3.254H93.961a3.681,3.681,0,0,0-3.656,3.254l-3,25.7Z" transform="translate(-72.374 -70.561)" fill="#61aff6"/>
    <path id="Path_44" data-name="Path 44" d="M360.462,114.087l-3-25.7a3.681,3.681,0,0,0-3.656-3.254H347.2l3.377,28.953Z" transform="translate(-287.778 -70.561)" fill="#399aea"/>
    <path id="Path_45" data-name="Path 45" d="M84.022,225.379H35.169a2.2,2.2,0,0,1-2.028-1.345L19.207,191.048a2.2,2.2,0,0,1,1.19-2.892l39.2-16.128,39.2,16.128a2.2,2.2,0,0,1,1.19,2.892L86.05,224.034A2.2,2.2,0,0,1,84.022,225.379Z" transform="translate(-15.786 -142.581)" fill="#acc3d1"/>
    <path id="Path_46" data-name="Path 46" d="M369.244,252.361l-6.971-2.868-16.935,40.092h9.134a2.2,2.2,0,0,0,2.028-1.345l13.933-32.987A2.2,2.2,0,0,0,369.244,252.361Z" transform="translate(-286.238 -206.787)" fill="#8faab5"/>
    <g id="Group_48" data-name="Group 48" transform="translate(23.053 19.62)">
      <path id="Path_47" data-name="Path 47" d="M144.147,120.424h-8.529a.876.876,0,0,1-.876-.876V115.5a.876.876,0,0,1,.876-.876h8.529a.876.876,0,0,1,.876.876v4.053A.876.876,0,0,1,144.147,120.424Z" transform="translate(-134.742 -114.619)" fill="#fff"/>
      <path id="Path_48" data-name="Path 48" d="M235.372,120.424h-8.529a.876.876,0,0,1-.876-.876V115.5a.876.876,0,0,1,.876-.876h8.529a.876.876,0,0,1,.876.876v4.053A.876.876,0,0,1,235.372,120.424Z" transform="translate(-210.352 -114.619)" fill="#fff"/>
      <path id="Path_49" data-name="Path 49" d="M326.6,120.424H318.07a.876.876,0,0,1-.876-.876V115.5a.876.876,0,0,1,.876-.876H326.6a.876.876,0,0,1,.876.876v4.053A.876.876,0,0,1,326.6,120.424Z" transform="translate(-285.963 -114.619)" fill="#fff"/>
    </g>
    <path id="Path_50" data-name="Path 50" d="M.065,464.761a.632.632,0,0,1,.658-.63c4.827.19,5.046,2.459,10.294,2.459,5.476,0,5.476-2.472,10.952-2.472s5.476,2.472,10.952,2.472,5.476-2.472,10.952-2.472,5.476,2.472,10.952,2.472,5.476-2.472,10.952-2.472,5.476,2.472,10.953,2.472c5.248,0,5.467-2.27,10.295-2.459a.633.633,0,0,1,.658.63v4.462a.629.629,0,0,1-.6.63c-4.88.175-5.081,2.461-10.348,2.461-5.476,0-5.476-2.472-10.953-2.472s-5.476,2.472-10.952,2.472-5.476-2.472-10.952-2.472-5.476,2.472-10.952,2.472-5.476-2.472-10.952-2.472-5.476,2.472-10.952,2.472c-5.266,0-5.468-2.286-10.347-2.461a.629.629,0,0,1-.6-.63S.065,464.761.065,464.761Z" transform="translate(-0.065 -384.674)" fill="#33d8dd"/>
    <path id="Path_51" data-name="Path 51" d="M98.793,188.155,59.6,172.027,20.4,188.155a2.2,2.2,0,0,0-1.19,2.892l1.479,3.5L59.6,179.288h0L98.5,194.55l1.479-3.5A2.2,2.2,0,0,0,98.793,188.155Z" transform="translate(-15.787 -142.581)" fill="#e6e5e5"/>
    <path id="Path_52" data-name="Path 52" d="M432.62,249.494l-2.407,5.7,9.088,3.565,1.479-3.5a2.2,2.2,0,0,0-.46-2.4q-.076-.077-.16-.147a2.2,2.2,0,0,0-.571-.343Z" transform="translate(-356.584 -206.788)" fill="#cccbca"/>
    <path id="Path_53" data-name="Path 53" d="M463.747,464.189c-4.452.175-4.988,2.117-9.158,2.419v5.724c4.187-.3,4.71-2.259,9.211-2.421a.629.629,0,0,0,.6-.63v-4.462A.633.633,0,0,0,463.747,464.189Z" transform="translate(-376.787 -384.732)" fill="#11b9c1"/>
  </g>
</svg>
